<?xml version="1.0" encoding="utf-8"?>
<!DOCTYPE svg PUBLIC "-//W3C//DTD SVG 1.0//EN" "http://www.w3.org/TR/2001/REC-SVG-20010904/DTD/svg10.dtd">
<svg version="1.0" xmlns="http://www.w3.org/2000/svg" width="198px" height="145px" viewBox="0 0 198 145" preserveAspectRatio="xMidYMid meet">
 <g fill="#000000">
  <path d="M104.6 126.3 c-0.4 -0.5 -8.9 -0.9 -18.9 -1.1 -10 -0.1 -27.9 -0.4 -39.7 -0.6 -11.8 -0.1 -24.9 0.1 -29.1 0.5 -9.4 1 -12.1 0.4 -11.7 -2.5 0.5 -3.3 9.9 -7 34.3 -13.8 6.1 -1.6 11.6 -3.5 12.2 -4 1.5 -1.2 0.7 -2.8 -4.2 -8.2 -1.9 -2.1 -3.5 -4.3 -3.5 -5 0 -0.6 -2.1 -3.3 -4.5 -5.9 -2.5 -2.6 -4.5 -5.1 -4.5 -5.5 0 -0.4 1.8 -2.6 4.1 -4.7 2.2 -2.2 4.7 -5.2 5.5 -6.7 0.8 -1.5 4.5 -6.8 8.4 -11.8 11.5 -15.1 11.3 -14.5 10.6 -25.8 -0.5 -7.8 -0.4 -9.1 0.5 -6.7 3.7 9.7 3.7 9.7 6.1 8.3 1.3 -0.7 5.9 -1.5 10.3 -1.8 l8 -0.5 0.3 -4 c0.5 -6.6 1.6 -7.4 2.2 -1.5 l0.5 5.5 9 0.7 c10.1 0.8 10.6 0.5 13.5 -5.6 l1.9 -4.1 -0.1 4.5 c-0.1 2.5 0.6 5.9 1.4 7.5 0.8 1.7 1.8 4.1 2.1 5.5 0.8 3.1 8.4 12 10.2 12 0.7 0 3.5 -1.7 6.2 -3.8 9.2 -7.3 9.5 -7.4 13.2 -5.6 1.8 0.9 3 2.1 2.8 2.8 -4.8 12.6 -10.9 32.6 -10.4 34 0.6 1.6 0.9 1.6 3.9 -0.5 1.8 -1.2 6.3 -4.6 9.9 -7.6 3.6 -2.9 7.1 -5.3 7.6 -5.3 0.5 0 1.8 0.9 2.7 1.9 1.3 1.4 1.5 2.4 0.8 3.8 -1.1 2 -3.8 16.8 -4.7 25.9 l-0.7 6.1 8.2 2.9 c6.3 2.2 9.1 3.8 12.3 7.1 2.5 2.6 5.1 4.3 6.4 4.3 2.8 0 3.2 3.8 0.6 4.6 -1 0.3 -3 1.2 -4.4 1.9 -4.7 2.6 -60.4 1.8 -64.7 -0.9 -0.6 -0.3 -2.7 0.5 -4.8 1.9 -3.6 2.4 -8.3 3.3 -9.8 1.8z m-41.7 -8.9 c0.7 -0.7 -1.5 -3.9 -2.6 -3.7 -0.4 0.1 -2.1 0.6 -3.8 1.2 -1.6 0.5 -5.2 1.7 -8 2.5 l-5 1.6 9.5 -0.6 c5.2 -0.3 9.7 -0.7 9.9 -1z m100.3 -0.4 c9.8 -2 10.1 -2.1 9.2 -3 -0.6 -0.6 -5.9 -2.7 -11.9 -4.9 -6.1 -2.1 -14.1 -5.3 -18 -7.1 l-7 -3.1 -1.8 2.3 c-3.4 4.3 -8.7 14 -8.1 14.9 0.3 0.5 3.3 0.7 6.7 0.4 3.4 -0.3 7.6 -0.2 9.2 0.4 4.1 1.3 15.3 1.3 21.7 0.1z m-79 -5.6 c0.8 -0.5 -2.5 -10.4 -7.1 -21.3 -1.7 -4.1 -4.3 -11.8 -5.7 -17 -3.6 -13.5 -4.4 -16.1 -5.4 -16.1 -1.2 0 -10.4 12.8 -13.3 18.6 l-2.6 5.2 3.1 4.6 c1.7 2.6 7 8.9 11.8 14 4.8 5.1 9.1 10.3 9.5 11.5 0.6 2 1.1 2.2 4.8 1.6 2.3 -0.4 4.5 -0.9 4.9 -1.1z m33.5 -4 c2.6 -3 5.4 -6.6 6.2 -7.9 1.4 -2.1 1.3 -2.5 -0.6 -4.2 -1.3 -1.1 -3.6 -6.5 -5.9 -13.6 l-3.7 -11.8 3.1 -4.5 c1.8 -2.4 3.2 -4.8 3.2 -5.2 0 -0.4 -2.2 -2.9 -4.9 -5.5 l-4.9 -4.9 -1 3.4 c-1.9 5.8 -13.2 54.3 -13.2 56.4 0 0.2 2.2 0.3 5 0.2 3.6 -0.2 5.5 0.2 6.7 1.5 2.8 2.8 4.9 2 10 -3.9z m37.4 -17.2 c0.4 -4.2 1 -8.5 1.4 -9.4 1.4 -3.6 -2.4 -1.7 -9.1 4.5 -4.6 4.4 -6.6 6.8 -6.2 7.9 0.9 2.2 11 6.9 12.3 5.7 0.5 -0.5 1.2 -4.4 1.6 -8.7z m-67 -14.7 c0.1 -7.7 0.1 -18 0 -22.8 l-0.1 -8.8 -7.1 0.3 c-9 0.4 -9.9 1.4 -8 9 1.8 7.2 9.4 29.4 11.7 34.1 1 2 2.1 3.4 2.5 3 0.4 -0.5 0.9 -7.1 1 -14.8z m42.7 7.6 c1.1 -4.9 0.7 -7.8 -1.8 -13.3 -1.6 -3.5 -3.5 -3.6 -5.6 -0.3 -1.5 2.3 -1.5 2.8 0.6 8.2 1.2 3.2 2.6 6.8 3.1 8.1 1.3 3.4 2.5 2.6 3.7 -2.7z m-29.7 -23.6 c4.9 -17.2 5 -15.5 -1.4 -15.5 -6.7 0 -6.7 0.1 -5 12.5 0.7 5 1.3 11.5 1.4 14.5 0.1 4.9 0.2 5.1 1 2.5 0.4 -1.6 2.2 -7.9 4 -14z m39.5 -2.7 c1.5 -4.4 0.7 -4.8 -2.9 -1.4 -1.7 1.6 -2.5 3.1 -2.1 4.1 1.1 2.7 3.6 1.2 5 -2.7z"/>
 </g>
</svg>